<?xml version="1.0" standalone="no"?>
<!DOCTYPE svg PUBLIC "-//W3C//DTD SVG 20010904//EN"
 "http://www.w3.org/TR/2001/REC-SVG-20010904/DTD/svg10.dtd">
<svg version="1.0" xmlns="http://www.w3.org/2000/svg"
 width="250.000000pt" height="255.000000pt" viewBox="0 0 250.000000 255.000000"
 preserveAspectRatio="xMidYMid meet">

<g transform="translate(0.000000,255.000000) scale(0.100000,-0.100000)"
fill="#000000" stroke="none">
<path d="M1100 2196 l0 -214 -52 -18 c-195 -63 -346 -194 -432 -374 -19 -39
-40 -93 -47 -121 -13 -49 -13 -49 -55 -49 l-42 0 15 57 c46 178 179 357 347
469 46 30 56 33 80 24 42 -16 62 -12 95 16 25 20 31 34 31 64 0 21 -3 46 -6
55 -8 20 -56 45 -87 45 -31 0 -73 -33 -81 -62 -4 -15 -29 -36 -68 -58 -118
-67 -267 -229 -336 -365 -32 -64 -71 -198 -78 -270 l-7 -66 124 3 124 3 21 80
c28 106 37 126 90 206 88 132 239 238 387 270 l57 12 -2 251 -3 251 -37 3 -38
3 0 -215z m49 170 c8 -9 11 -79 9 -232 l-3 -218 -51 -11 c-72 -16 -189 -75
-255 -128 -104 -83 -190 -220 -226 -359 -20 -77 -10 -73 -148 -61 l-78 6 7 60
c9 86 56 214 111 304 60 96 198 235 283 285 42 24 69 47 80 70 31 61 110 64
138 4 15 -30 15 -35 0 -64 -19 -37 -57 -50 -100 -34 -27 11 -36 8 -84 -21
-180 -109 -341 -335 -377 -530 l-7 -38 57 3 57 3 22 70 c66 209 216 376 401
445 44 17 90 35 103 40 22 9 22 12 22 208 0 109 3 202 7 205 10 10 19 8 32 -7z"/>
<path d="M1356 2395 c-9 -23 -7 -678 2 -692 4 -6 30 -20 58 -31 67 -25 136
-73 176 -123 27 -34 31 -46 29 -89 -2 -42 2 -53 23 -75 59 -59 156 -16 156 70
0 42 -30 85 -58 85 -7 0 -50 38 -95 84 -60 61 -99 91 -144 112 l-63 29 0 228
c0 263 -11 245 116 202 383 -129 655 -471 681 -858 l6 -88 41 3 c40 3 41 4 44
43 5 54 -24 220 -52 303 -91 267 -298 501 -555 628 -67 33 -226 84 -262 84
-14 0 -18 9 -21 48 -3 46 -4 47 -39 50 -26 2 -38 -1 -43 -13z m64 -444 c0
-102 4 -191 8 -196 4 -6 32 -21 62 -35 37 -17 82 -52 137 -106 45 -44 95 -86
111 -93 38 -16 57 -57 43 -94 -21 -55 -98 -63 -135 -14 -18 24 -19 31 -8 59
11 29 9 36 -15 72 -36 51 -118 112 -190 141 l-58 24 -3 213 c-1 117 0 224 4
238 l6 25 19 -24 c17 -21 19 -41 19 -210z m878 -591 c10 -83 9 -90 -17 -90
-15 0 -19 15 -27 96 -5 53 -7 98 -5 100 3 3 13 -3 23 -13 11 -12 20 -44 26
-93z"/>
<path d="M932 2275 c-409 -140 -696 -508 -719 -922 l-6 -103 40 0 40 0 7 79
c19 237 118 451 285 620 114 115 314 232 442 258 27 5 29 9 29 49 0 39 -3 44
-22 44 -13 0 -56 -12 -96 -25z m98 -20 c0 -20 -7 -26 -42 -36 -60 -15 -196
-80 -265 -126 -77 -51 -215 -183 -269 -259 -86 -120 -142 -253 -173 -412 -17
-86 -17 -87 -33 -62 -31 47 13 234 92 389 50 100 93 159 182 249 134 136 279
217 506 281 1 1 2 -10 2 -24z"/>
<path d="M1535 2138 c-32 -19 -44 -41 -45 -81 0 -29 7 -45 29 -68 31 -31 53
-35 96 -19 22 8 34 6 64 -12 128 -78 244 -204 314 -343 20 -40 67 -174 67
-191 0 -2 -17 -4 -38 -4 l-38 0 -23 75 c-53 173 -195 337 -366 421 -51 26 -98
43 -104 40 -6 -4 -11 -24 -11 -45 0 -37 1 -39 77 -76 158 -78 291 -249 333
-427 l17 -73 122 -3 c103 -2 122 0 127 13 10 24 -21 162 -55 251 -62 160 -190
316 -340 415 -40 27 -77 49 -82 49 -5 0 -9 7 -9 16 0 8 -13 29 -29 45 -31 31
-70 37 -106 17z m34 -110 c38 -32 39 -38 6 -38 -30 0 -65 32 -65 60 0 24 9 20
59 -22z m16 -134 c169 -82 297 -231 359 -415 l25 -74 55 -3 c41 -2 56 0 56 10
0 26 -40 157 -64 213 -21 46 -22 54 -8 46 28 -15 49 -43 72 -96 25 -59 62
-204 54 -217 -3 -4 -51 -8 -108 -8 l-102 0 -18 73 c-43 184 -178 356 -343 437
-45 22 -63 37 -63 51 0 10 3 19 6 19 3 0 38 -16 79 -36z"/>
<path d="M1150 1776 c-186 -42 -328 -177 -384 -365 -20 -67 -21 -216 -2 -286
37 -142 145 -275 269 -334 l67 -32 0 -320 0 -319 40 0 40 0 -2 351 c-3 301 -5
353 -18 360 -8 4 -41 19 -73 33 -65 29 -157 110 -194 174 -155 265 -4 596 298
652 35 7 70 14 77 16 7 2 12 20 12 44 0 40 0 40 -37 39 -21 0 -63 -6 -93 -13z
m110 -30 c0 -21 -6 -25 -47 -31 -278 -41 -457 -304 -388 -570 34 -128 120
-233 240 -291 38 -19 75 -34 82 -34 10 0 13 -25 13 -100 0 -55 -3 -100 -6
-100 -19 0 -35 38 -41 95 l-6 66 -61 31 c-126 63 -221 174 -266 308 -18 54
-21 82 -18 171 3 101 5 110 45 191 83 166 253 284 416 287 33 1 37 -2 37 -23z"/>
<path d="M1100 1250 l0 -220 168 2 167 3 0 45 0 45 -117 3 -118 3 0 169 0 170
-50 0 -50 0 0 -220z m75 36 l-8 -175 24 -5 c13 -4 69 -7 124 -9 79 -2 70 -3
-46 -5 l-146 -2 -7 77 c-3 42 -6 125 -6 185 l0 108 36 0 36 0 -7 -174z"/>
<path d="M544 1200 c22 -263 188 -500 420 -600 72 -30 86 -28 85 18 0 36 -2
38 -71 71 -82 39 -189 135 -247 222 -60 90 -88 173 -106 322 l-6 47 -41 0 -41
0 7 -80z m61 8 c3 -29 11 -75 17 -101 12 -56 7 -66 -20 -39 -21 21 -42 100
-42 157 0 28 4 35 19 35 16 0 20 -10 26 -52z"/>
<path d="M1930 1232 c0 -66 -29 -173 -71 -257 -49 -101 -187 -238 -289 -288
-41 -20 -100 -43 -130 -50 l-55 -14 -3 -252 -2 -251 40 0 40 0 0 218 0 219 43
12 c23 7 80 31 127 53 69 33 99 56 170 127 47 47 102 115 123 151 53 91 88
208 90 300 l2 75 -42 3 -43 3 0 -49z m70 -20 c0 -70 -34 -193 -75 -271 -88
-167 -224 -284 -405 -347 -62 -22 -65 -25 -72 -61 -4 -21 -7 -57 -7 -80 -1
-24 -5 -43 -10 -43 -21 0 -32 34 -38 112 l-6 84 54 12 c30 7 92 31 139 54 195
96 339 306 366 531 6 52 9 57 30 57 22 0 24 -4 24 -48z"/>
<path d="M215 1128 c38 -328 249 -637 547 -798 86 -46 186 -85 246 -95 l43 -7
-3 42 -3 42 -87 29 c-103 33 -150 56 -244 120 -199 134 -361 376 -403 602 l-8
47 41 0 41 0 18 -78 c50 -209 197 -407 390 -525 42 -26 70 -51 73 -65 9 -33
52 -62 91 -62 49 0 83 37 83 90 0 65 -60 106 -122 82 -25 -9 -35 -6 -90 30
-35 22 -99 77 -144 123 -115 117 -188 267 -219 448 l-6 37 -125 0 -126 0 7
-62z"/>
<path d="M2070 1167 c0 -34 -27 -133 -56 -206 -54 -138 -178 -289 -306 -374
-50 -33 -62 -37 -97 -31 -46 7 -97 -9 -111 -37 -19 -34 -12 -88 15 -114 45
-46 155 -20 155 35 0 13 28 38 85 75 197 130 337 327 387 545 11 49 12 50 50
50 21 0 38 -4 38 -9 0 -30 -58 -199 -91 -265 -122 -244 -314 -410 -573 -496
l-81 -27 -3 -41 c-4 -48 4 -51 79 -29 24 8 50 12 57 9 16 -5 16 -134 0 -150
-9 -9 3 -12 55 -12 56 0 67 3 67 17 0 13 -3 14 -12 5 -17 -17 -65 -15 -72 4
-3 9 -6 40 -6 69 0 41 4 56 18 64 14 9 12 10 -13 11 -24 0 -13 9 62 44 126 60
193 107 290 199 162 155 270 357 308 574 8 47 15 92 15 99 0 11 -27 14 -130
14 -129 0 -130 0 -130 -23z m234 4 c9 -14 -21 -169 -47 -246 -53 -154 -132
-282 -246 -396 -90 -89 -172 -147 -290 -202 -87 -41 -160 -54 -168 -29 -3 6 1
12 9 12 27 0 168 69 239 116 152 101 272 239 358 410 41 84 78 197 83 254 l3
35 -52 3 c-50 3 -53 2 -58 -25 -17 -75 -50 -173 -77 -228 -71 -141 -197 -278
-327 -355 -39 -23 -71 -48 -71 -55 0 -7 -9 -24 -21 -39 -41 -52 -129 -23 -129
44 0 17 9 39 20 50 21 21 79 27 96 10 12 -12 116 52 184 113 141 129 245 317
275 500 l6 37 104 0 c57 0 106 -4 109 -9z"/>
<path d="M1663 1156 c-36 -17 -45 -37 -42 -102 3 -46 1 -48 -62 -109 -42 -39
-87 -70 -122 -85 -61 -25 -72 -46 -43 -85 12 -17 18 -18 53 -7 62 19 155 84
213 151 30 33 62 61 70 61 9 0 28 13 43 28 75 78 -10 193 -110 148z m102 -31
c14 -13 25 -35 25 -49 0 -31 -37 -75 -67 -79 -12 -2 -38 -23 -56 -48 -45 -58
-103 -103 -179 -139 -76 -36 -88 -37 -87 -7 0 17 14 28 62 51 78 37 193 147
182 174 -19 44 -17 71 8 96 34 34 80 34 112 1z"/>
<path d="M1750 252 c0 -5 14 -7 30 -4 l30 4 0 -62 c0 -34 -5 -70 -10 -81 -10
-17 -7 -19 22 -19 25 0 29 3 20 12 -7 7 -12 41 -12 81 l0 69 30 -4 c17 -3 30
-1 30 4 0 4 -31 8 -70 8 -38 0 -70 -4 -70 -8z"/>
<path d="M2150 187 c0 -43 -5 -78 -12 -85 -9 -9 -5 -12 21 -12 29 0 31 1 17
16 -16 16 -23 114 -8 114 4 -1 20 -29 35 -63 l29 -62 33 65 34 65 1 -55 c0
-31 -5 -61 -12 -68 -9 -9 -3 -12 28 -11 21 0 33 3 27 6 -9 3 -13 29 -13 78 0
49 4 75 13 78 6 3 -1 6 -16 6 -24 1 -31 -6 -54 -59 -14 -33 -29 -60 -33 -60
-4 0 -18 27 -33 60 -37 86 -57 82 -57 -13z"/>
<path d="M1897 196 c-3 -9 -2 -18 3 -21 6 -4 10 1 10 9 0 9 8 16 19 16 15 0
19 -8 19 -47 1 -44 14 -75 24 -56 3 4 2 31 -1 58 -6 47 -8 50 -37 53 -21 2
-33 -2 -37 -12z"/>
<path d="M2018 165 c3 -28 0 -50 -8 -60 -10 -13 -9 -15 11 -15 23 0 24 3 21
60 -3 41 -8 60 -17 60 -9 0 -11 -12 -7 -45z"/>
<path d="M2054 198 c-4 -7 -4 -10 1 -6 13 12 35 -12 35 -39 0 -13 -5 -33 -10
-44 -9 -16 -7 -19 13 -19 26 0 25 -3 12 83 -4 28 -11 37 -25 37 -10 0 -22 -6
-26 -12z"/>
<path d="M2368 203 c7 -3 12 -23 12 -48 0 -51 18 -72 49 -55 14 7 21 7 21 1 0
-6 6 -8 13 -6 8 4 11 23 9 60 -3 49 -6 55 -25 55 -16 0 -18 -3 -9 -9 8 -5 12
-23 10 -47 -2 -31 -7 -39 -23 -39 -17 0 -20 8 -23 48 -3 41 -6 47 -25 46 -12
0 -16 -3 -9 -6z"/>
<path d="M1902 148 c-27 -27 -2 -72 28 -53 8 5 5 11 -7 20 -15 11 -15 15 -4
29 16 18 1 22 -17 4z"/>
</g>
</svg>
